<svg width="356" height="68" viewBox="0 0 356 68" fill="none" xmlns="http://www.w3.org/2000/svg">
<rect width="355.867" height="68" fill="none"/>
<path d="M127.63 29.6775C125.524 27.7871 122.588 26.6426 118.901 26.2767C116.769 26.0609 115.138 25.6904 114.054 25.1744C113.061 24.7029 112.386 24.1659 112.051 23.5772C111.692 22.9486 111.518 22.3153 111.518 21.6399C111.518 20.3405 112.034 19.4446 113.142 18.8231C114.416 18.1077 116.051 17.763 118.005 17.7817C119.089 17.7817 120.03 17.9248 120.805 18.2086C121.578 18.4924 122.255 18.8817 122.821 19.3649C123.389 19.8527 123.881 20.4625 124.29 21.1966C124.751 21.9847 125.445 22.5264 126.353 22.8102C127.302 23.1081 128.243 22.9932 129.082 22.4725C129.85 21.9823 130.316 21.2599 130.43 20.3804C130.537 19.5642 130.311 18.7175 129.776 17.8849C128.994 16.6208 128.058 15.5067 126.988 14.5779C125.902 13.6327 124.618 12.8846 123.173 12.3498C121.73 11.8174 120.035 11.55 118.138 11.55C115.744 11.55 113.536 11.9206 111.57 12.6547C109.545 13.4099 107.91 14.5381 106.712 16.0063C105.478 17.519 104.853 19.3719 104.853 21.5132C104.853 24.4192 106.025 26.8865 108.338 28.8449C110.57 30.7376 113.641 31.8822 117.454 32.2457C119.942 32.5037 121.72 33.151 122.738 34.1666C123.741 35.168 124.228 36.2563 124.228 37.49C124.228 38.4305 123.962 39.1857 123.413 39.8049C122.811 40.4803 122.001 41.008 121.003 41.3739C119.954 41.7586 118.785 41.9509 117.525 41.9509C116.398 41.9509 115.312 41.782 114.297 41.4466C113.284 41.1136 112.417 40.6773 111.718 40.152C111.062 39.6571 110.593 39.1247 110.322 38.5712C109.959 37.816 109.412 37.2367 108.694 36.852C107.945 36.451 107.166 36.336 106.398 36.5049C105.093 36.7629 104.432 37.4689 104.109 38.0177C103.619 38.8456 103.593 39.7697 104.033 40.6961C104.682 42.1901 105.706 43.5246 107.082 44.6598C108.43 45.7739 110.032 46.651 111.841 47.2655C113.638 47.8777 115.55 48.1872 117.527 48.1872C119.191 48.1872 120.824 47.9715 122.384 47.5446C123.971 47.1107 125.412 46.4376 126.665 45.5487C127.941 44.641 128.973 43.5012 129.733 42.1596C130.508 40.7946 130.901 39.181 130.901 37.3633C130.901 34.2158 129.802 31.6312 127.637 29.6869L127.63 29.6775Z" fill="black"/>
<path d="M152.936 23.5584C150.968 22.4162 148.707 21.8369 146.221 21.8369C143.734 21.8369 141.517 22.4162 139.548 23.5608C137.585 24.703 136.011 26.2791 134.873 28.2445C133.736 30.2076 133.142 32.4427 133.111 34.9007V54.5362C133.111 55.4532 133.442 56.2624 134.069 56.8816C134.694 57.4984 135.517 57.8268 136.446 57.8268C137.376 57.8268 138.243 57.4961 138.859 56.8675C139.46 56.2507 139.779 55.4462 139.779 54.5362V45.4713C140.425 45.9615 141.122 46.3907 141.866 46.7542C143.451 47.5305 145.21 47.9222 147.093 47.9222C149.42 47.9222 151.543 47.3359 153.399 46.1819C155.244 45.0374 156.718 43.466 157.78 41.51C158.838 39.5633 159.373 37.3399 159.373 34.9007C159.373 32.4615 158.786 30.2076 157.631 28.2374C156.478 26.272 154.897 24.6983 152.936 23.5584ZM152.879 34.9007C152.879 36.2282 152.579 37.4337 151.992 38.4844C151.398 39.5469 150.618 40.3584 149.613 40.9658C148.617 41.5662 147.509 41.8594 146.221 41.8594C144.932 41.8594 143.856 41.5662 142.845 40.9611C141.828 40.356 141.053 39.5469 140.475 38.4914C139.898 37.4407 139.605 36.2305 139.605 34.9007C139.605 33.5708 139.898 32.3184 140.475 31.2653C141.053 30.2099 141.828 29.4031 142.845 28.7956C143.858 28.1929 144.961 27.8974 146.221 27.8974C147.481 27.8974 148.617 28.1905 149.613 28.791C150.621 29.4008 151.398 30.2123 151.992 31.2724C152.582 32.3254 152.879 33.545 152.879 34.8983V34.9007Z" fill="black"/>
<path d="M181.373 23.5092C179.407 22.3998 177.137 21.8369 174.624 21.8369C172.112 21.8369 169.799 22.3998 167.833 23.5092C165.862 24.6232 164.294 26.1805 163.164 28.1389C162.04 30.0903 161.47 32.3653 161.47 34.9007C161.47 37.436 162.04 39.6688 163.164 41.6202C164.291 43.5786 165.862 45.1359 167.833 46.25C169.799 47.3593 172.083 47.9222 174.624 47.9222C177.165 47.9222 179.45 47.3593 181.416 46.25C183.386 45.1359 184.95 43.5786 186.065 41.6155C187.173 39.6641 187.734 37.4055 187.734 34.903C187.734 32.4005 187.163 30.095 186.039 28.1413C184.912 26.1829 183.341 24.6256 181.37 23.5138L181.373 23.5092ZM181.242 34.9007C181.242 36.2891 180.957 37.5205 180.391 38.5618C179.828 39.5985 179.069 40.3912 178.071 40.9822C177.073 41.5733 175.946 41.8594 174.627 41.8594C173.307 41.8594 172.181 41.5733 171.182 40.9822C170.182 40.3889 169.414 39.5938 168.834 38.5524C168.259 37.5158 167.966 36.2868 167.966 34.9007C167.966 33.5146 168.259 32.2762 168.836 31.2231C169.414 30.1677 170.182 29.3679 171.18 28.7769C172.176 28.1858 173.303 27.8997 174.624 27.8997C175.946 27.8997 177.07 28.1858 178.069 28.7769C179.065 29.3656 179.823 30.163 180.386 31.2137C180.952 32.2692 181.24 33.5099 181.24 34.9007H181.242Z" fill="black"/>
<path d="M207.385 22.7703C206.332 22.0831 204.853 21.75 202.868 21.75C200.884 21.75 199.141 22.2027 197.527 23.0963C197.13 23.3144 196.755 23.5536 196.396 23.8116C196.251 23.4481 196.044 23.1314 195.775 22.8664C195.198 22.2965 194.382 22.008 193.355 22.008C192.328 22.008 191.549 22.3035 190.957 22.8875C190.365 23.4715 190.066 24.2666 190.066 25.254V44.5002C190.066 45.5251 190.372 46.332 190.971 46.9019C191.561 47.4624 192.362 47.7462 193.355 47.7462C194.349 47.7462 195.212 47.446 195.789 46.8526C196.358 46.271 196.645 45.4806 196.645 44.5002V31.9266C196.645 30.8947 196.961 30.0761 197.615 29.4194C198.314 28.7181 199.308 28.2256 200.572 27.9559C201.899 27.6745 203.434 27.7049 205.108 28.038C205.633 28.1576 206.137 28.1764 206.6 28.0919C207.121 28.0005 207.587 27.7753 207.989 27.4258C208.412 27.0576 208.697 26.5534 208.835 25.9318C209.018 25.2095 209.061 23.8609 207.385 22.7656V22.7703Z" fill="black"/>
<path d="M226.604 42.223C226.031 41.5897 225.284 41.2544 224.445 41.2544H222.962C222.368 41.2544 221.892 41.0128 221.464 40.4945C221.039 39.9785 220.754 39.3053 220.754 37.6988V28.1578H223.354C224.25 28.1578 225.001 27.8857 225.591 27.3509C226.195 26.7998 226.513 26.0751 226.513 25.2565C226.513 24.3793 226.195 23.6265 225.589 23.0753C225.001 22.5406 224.248 22.2685 223.354 22.2685H220.754V17.1603C220.754 16.6161 220.195 15.8117 219.817 15.4388C219.204 14.836 218.391 14.517 217.464 14.517C216.537 14.517 215.721 14.836 215.11 15.4388C214.661 15.882 214.174 16.6677 214.174 17.1603V22.2662H213.275C212.379 22.2662 211.628 22.5382 211.041 23.073C210.437 23.6218 210.116 24.377 210.116 25.2542C210.116 26.0751 210.435 26.7998 211.041 27.3486C211.628 27.8833 212.382 28.1554 213.278 28.1554H214.176V37.6964C214.176 39.9667 214.514 41.5733 215.305 43.0673C216.061 44.4957 217.117 45.6426 218.441 46.4752C219.779 47.3172 221.3 47.744 222.964 47.744H223.751C224.776 47.744 225.641 47.4532 226.323 46.8809C227.05 46.2711 227.436 45.4479 227.436 44.4957C227.436 43.5435 227.157 42.8258 226.608 42.216L226.604 42.223Z" fill="black"/>
<path d="M276.03 35.8296C280.09 34.345 282.873 31.1506 282.873 26.0611V25.972C282.873 23.0004 281.913 20.526 280.135 18.7693C278.038 16.7007 274.889 15.5749 270.831 15.5749H254.235L258.482 21.83H270.239C273.66 21.83 275.756 23.3615 275.756 26.3308V26.4223C275.756 29.0772 273.795 30.8785 270.372 30.8785H264.622L275.619 47.0827H283.831L276.03 35.8296Z" fill="#ED1C24"/>
<path d="M299.803 15.5747H285.932V21.8299H299.208C302.724 21.8299 304.913 23.4974 304.913 26.6004V26.6918C304.913 29.3937 302.857 31.4623 299.346 31.4623H285.932V47.0802H292.957V37.6283H299.118C306.28 37.6283 312.028 33.8452 312.028 26.5558V26.4643C312.028 20.0286 307.421 15.5724 299.803 15.5724V15.5747Z" fill="#ED1C24"/>
<path d="M251.525 21.7432H233.207V15.5749H247.339L251.525 21.7432Z" fill="#ED1C24"/>
<path d="M268.723 47.0825H233.207V28.1318H255.86L260.046 34.3002H240.186V40.9142H264.539L268.723 47.0825Z" fill="#ED1C24"/>
<path d="M73.4747 15.5993L84.516 20.4424C87.6974 21.8288 87.6974 24.1209 84.516 25.5073L73.4747 30.3504C72.2209 30.905 70.1623 30.905 68.9085 30.3504L57.8672 25.5073C54.6858 24.1209 54.6858 21.8288 57.8672 20.4424L68.9085 15.5993C70.1623 15.0447 72.2209 15.0447 73.4747 15.5993Z" stroke="#ED1C24" stroke-width="2" stroke-linecap="round" stroke-linejoin="round"/>
<path d="M71.502 42.0766C70.7909 42.0766 70.0797 41.9287 69.4248 41.6514L56.8115 36.1059C54.8839 35.2556 53.3868 32.9819 53.3868 30.893C53.3868 30.1352 54.0044 29.5251 54.7717 29.5251C55.5389 29.5251 56.1565 30.1352 56.1565 30.893C56.1565 31.8912 56.9986 33.1852 57.9343 33.5919L70.5476 39.1374C71.1464 39.3962 71.8389 39.3962 72.4377 39.1374L85.051 33.5919C85.9867 33.1852 86.8288 31.9097 86.8288 30.893C86.8288 30.1352 87.4464 29.5251 88.2137 29.5251C88.9809 29.5251 89.5985 30.1352 89.5985 30.893C89.5985 32.9634 88.1014 35.2556 86.1738 36.1059L73.5606 41.6514C72.9243 41.9287 72.2131 42.0766 71.502 42.0766Z" fill="#D1D5DB"/>
<path d="M71.502 51.2453C70.7909 51.2453 70.0797 51.0974 69.4248 50.8201L56.8115 45.2746C54.7342 44.3688 53.3868 42.3169 53.3868 40.0618C53.3868 39.3039 54.0044 38.6938 54.7717 38.6938C55.5389 38.6938 56.1565 39.3039 56.1565 40.0618C56.1565 41.2263 56.8489 42.28 57.9343 42.7606L70.5476 48.3061C71.1464 48.5649 71.8389 48.5649 72.4377 48.3061L85.051 42.7606C86.1177 42.2985 86.8288 41.2263 86.8288 40.0618C86.8288 39.3039 87.4464 38.6938 88.2137 38.6938C88.9809 38.6938 89.5985 39.3039 89.5985 40.0618C89.5985 42.3169 88.2511 44.3503 86.1738 45.2746L73.5606 50.8201C72.9243 51.0974 72.2131 51.2453 71.502 51.2453Z" fill="#111928"/>
</svg>
